<?xml version="1.0" encoding="utf-8"?>
<!-- Generator: Adobe Illustrator 19.0.0, SVG Export Plug-In . SVG Version: 6.00 Build 0)  -->
<svg version="1.1" xmlns="http://www.w3.org/2000/svg" xmlns:xlink="http://www.w3.org/1999/xlink" x="0px" y="0px"
	 viewBox="0 0 8.1 7" style="enable-background:new 0 0 8.1 7;" xml:space="preserve">
<style type="text/css">
	.st0{display:none;fill:#CE1B1B;stroke:#000000;stroke-miterlimit:10;}
	.st1{display:none;}
	.st2{fill:#020101;}
</style>
<g id="Layer_2">
	<rect x="-307.3" y="-426.7" class="st0" width="633" height="946"/>
	<g id="Layer_1" class="st1">
		
			<image style="overflow:visible;" width="5" height="9" xlink:href="C:\Users\Nikita A\Desktop\arr_right.png"  transform="matrix(1 0 0 1 1.3958 -2.1458)">
		</image>
	</g>
	<path class="st2" d="M6.7,3.5c0-0.2-0.1-0.3-0.1-0.3l-2-2.4C4.4,0.6,4.2,0.6,4,0.8C3.8,1,3.8,1.2,4,1.4l1.3,1.7H0.8
		c-0.2,0-0.4,0.1-0.4,0.4c0,0.3,0.2,0.4,0.4,0.4h4.5L4,5.6C3.8,5.8,3.8,5.9,4,6.2c0.2,0.2,0.4,0.2,0.6,0l2-2.4
		C6.6,3.7,6.7,3.6,6.7,3.5z"/>
	<path class="st1" d="M7.1,3.7C7,3.8,7,3.8,6.9,3.9C6.8,4.1,6.7,4.1,6.5,4.1c-1.5,0-3,0-4.5,0c-0.1,0-0.2,0-0.4,0
		C1.2,4.1,1,3.9,1,3.5C1,2.7,1,1.8,1,1c0-0.3,0-0.5,0-0.8c0-0.3,0.3-0.5,0.5-0.5c1.6,0,3.3,0,4.9,0C6.8-0.3,7-0.1,7,0.1c0,0,0,0,0,0
		C7.1,1.3,7.1,2.5,7.1,3.7z M6.5,3.6c0-1,0-2,0-3c0,0,0,0-0.1,0C5.7,1.2,5,1.8,4.3,2.4C4.1,2.5,4,2.5,3.8,2.4
		c-0.6-0.5-1.3-1-1.9-1.5C1.8,0.8,1.7,0.7,1.6,0.6c0,1,0,2,0,3C3.2,3.6,4.9,3.6,6.5,3.6z M4,1.8c0.7-0.5,1.3-1,2-1.6
		c-1.3,0-2.6,0-4,0C2.7,0.8,3.4,1.3,4,1.8z"/>
</g>
<g id="Layer_3">
</g>
</svg>
