<?xml version="1.0" encoding="utf-8"?>
<!-- Generator: Adobe Illustrator 19.0.0, SVG Export Plug-In . SVG Version: 6.00 Build 0)  -->
<svg version="1.1" id="Layer_1" xmlns="http://www.w3.org/2000/svg" xmlns:xlink="http://www.w3.org/1999/xlink" x="0px" y="0px"
	 viewBox="-293 417.9 8.1 7" style="enable-background:new -293 417.9 8.1 7;" xml:space="preserve">
<style type="text/css">
	.st0{display:none;fill:#CE1B1B;stroke:#000000;stroke-miterlimit:10;}
	.st1{display:none;}
	.st2{fill:#020101;}
</style>
<g id="Layer_2">
	<rect x="-600.3" y="-8.8" class="st0" width="633" height="946"/>
	<g id="Layer_1_1_" class="st1">
		
			<image style="display:inline;overflow:visible;enable-background:new    ;" width="5" height="9" xlink:href="C:\Users\Nikita A\Desktop\arr_right.png"  transform="matrix(1 0 0 1 -291.6042 415.7442)">
		</image>
	</g>
	<path class="st2" d="M-286.3,421.4c0-0.2-0.1-0.3-0.1-0.3l-2-2.4c-0.2-0.2-0.4-0.2-0.6,0s-0.2,0.4,0,0.6l1.3,1.7h-4.5
		c-0.2,0-0.4,0.1-0.4,0.4c0,0.3,0.2,0.4,0.4,0.4h4.5l-1.3,1.7c-0.2,0.2-0.2,0.3,0,0.6c0.2,0.2,0.4,0.2,0.6,0l2-2.4
		C-286.4,421.7-286.3,421.6-286.3,421.4z"/>
	<path class="st1" d="M-285.9,421.6c-0.1,0.1-0.1,0.1-0.2,0.2c-0.1,0.2-0.2,0.2-0.4,0.2c-1.5,0-3,0-4.5,0c-0.1,0-0.2,0-0.4,0
		c-0.4,0-0.6-0.2-0.6-0.6c0-0.8,0-1.7,0-2.5c0-0.3,0-0.5,0-0.8c0-0.3,0.3-0.5,0.5-0.5c1.6,0,3.3,0,4.9,0c0.4,0,0.6,0.2,0.6,0.4l0,0
		C-285.9,419.2-285.9,420.4-285.9,421.6z M-286.5,421.5c0-1,0-2,0-3c0,0,0,0-0.1,0c-0.7,0.6-1.4,1.2-2.1,1.8c-0.2,0.1-0.3,0.1-0.5,0
		c-0.6-0.5-1.3-1-1.9-1.5c-0.1-0.1-0.2-0.2-0.3-0.3c0,1,0,2,0,3C-289.8,421.5-288.1,421.5-286.5,421.5z M-289,419.7
		c0.7-0.5,1.3-1,2-1.6c-1.3,0-2.6,0-4,0C-290.3,418.7-289.6,419.2-289,419.7z"/>
</g>
<g id="Layer_3">
</g>
</svg>
