<?xml version="1.0" encoding="utf-8"?>
<!-- Generator: Adobe Illustrator 19.0.0, SVG Export Plug-In . SVG Version: 6.00 Build 0)  -->
<svg version="1.1" xmlns="http://www.w3.org/2000/svg" xmlns:xlink="http://www.w3.org/1999/xlink" x="0px" y="0px"
	 viewBox="0 0 11.3 6.6" style="enable-background:new 0 0 11.3 6.6;" xml:space="preserve">
<style type="text/css">
	.st0{display:none;fill:#CE1B1B;stroke:#000000;stroke-miterlimit:10;}
	.st1{display:none;}
	.st2{fill:#020101;}
</style>
<g id="Layer_2">
	<rect x="-305.7" y="-425.3" class="st0" width="633" height="946"/>
	<g id="Layer_1" class="st1">
		
			<image style="overflow:visible;" width="5" height="9" xlink:href="C:\Users\Nikita A\Desktop\arr_right.png"  transform="matrix(1 0 0 1 3 -0.75)">
		</image>
	</g>
	<path class="st2" d="M9.1,3.3C9.1,3,9,2.9,8.9,2.8L7.4,1.3C7.1,1,6.8,1,6.4,1.3c-0.4,0.4-0.3,0.7,0,1l0.3,0.3H2.9
		c-0.4,0-0.7,0.2-0.7,0.7C2.2,3.8,2.5,4,2.9,4h3.8L6.4,4.3c-0.3,0.3-0.4,0.6,0,1c0.4,0.4,0.7,0.3,1,0l1.4-1.4C9,3.8,9.1,3.6,9.1,3.3
		z"/>
</g>
<g id="Layer_3">
</g>
</svg>
