<?xml version="1.0" encoding="utf-8"?>
<!-- Generator: Adobe Illustrator 19.0.0, SVG Export Plug-In . SVG Version: 6.00 Build 0)  -->
<svg version="1.1" xmlns="http://www.w3.org/2000/svg" xmlns:xlink="http://www.w3.org/1999/xlink" x="0px" y="0px"
	 viewBox="54 187.3 342 187.7" style="enable-background:new 54 187.3 342 187.7;" xml:space="preserve">
<style type="text/css">
	.st0{display:none;}
	.st1{display:inline;fill:none;}
	.st2{display:inline;fill:#706F52;}
	.st3{display:inline;}
	.st4{fill:#FAAA28;}
	.st5{display:inline;fill:#999999;stroke:#FFFFFF;stroke-linecap:round;stroke-linejoin:round;stroke-miterlimit:10;}
	.st6{fill:#FFFFF3;}
	.st7{fill:#FCFCFC;}
	.st8{fill:#FFFFFF;}
	.st9{fill:none;}
	.st10{display:none;fill:#FFFFFF;}
</style>
<g id="Layer_1">
	<g id="Layer_1_1_">
		
			<image style="overflow:visible;enable-background:new    ;" width="355" height="142" id="XMLID_9_" xlink:href="F8394AB5.png"  transform="matrix(0.4096 0 0 0.4096 -2763.915 4.4307)">
		</image>
		
			<image style="overflow:visible;enable-background:new    ;" width="224" height="224" id="XMLID_8_" xlink:href="F8394AB7.png"  transform="matrix(0.4096 0 0 0.4096 -2893.9805 89.398)">
		</image>
		
			<image style="overflow:visible;enable-background:new    ;" width="231" height="218" id="XMLID_7_" xlink:href="F8394AB5.png"  transform="matrix(0.4096 0 0 0.4096 -2761.3005 90.7052)">
		</image>
		
			<image style="overflow:visible;enable-background:new    ;" width="275" height="183" id="XMLID_6_" xlink:href="F8394AB3.jpeg"  transform="matrix(0.4096 0 0 0.4096 -2525.353 13.5811)">
		</image>
		
			<image style="overflow:visible;enable-background:new    ;" width="442" height="114" id="XMLID_5_" xlink:href="F8394ABD.png"  transform="matrix(0.4096 0 0 0.4096 -2987.4443 4.4307)">
		</image>
		
			<image style="overflow:visible;enable-background:new    ;" width="178" height="178" id="XMLID_3_" xlink:href="F8394ABF.png"  transform="matrix(0.3072 0 0 0.3072 -2605.0916 48.8752)">
		</image>
		
			<image style="overflow:visible;enable-background:new    ;" width="2083" height="2083" id="XMLID_2_" xlink:href="F8394AB2.png"  transform="matrix(0.1966 0 0 0.1966 -2549.5359 10.3131)">
		</image>
	</g>
	<g id="Layer_2" class="st0">
		<path id="XMLID_23_" class="st1" d="M-1727.6,244.6c0-2.3,0-14.6,0.1-71.2c-33.5-7.5-63.7-11.9-78.2-12
			c-43.1-0.4-77.9,34.6-78.4,76.7c-0.4,43.3,34.9,78.7,77.6,78.4c14.7,0.1,45.2-3.7,79-10.5
			C-1727.6,251.7-1727.6,244.9-1727.6,244.6C-1727.6,245.7-1727.6,244.5-1727.6,244.6z"/>
		<path id="XMLID_40_" class="st2" d="M-1727.6,244.6C-1727.6,244.5-1727.6,245.7-1727.6,244.6L-1727.6,244.6z"/>
		<g id="XMLID_4_" class="st3">
			<path id="XMLID_90_" d="M-1442.9,300.3c-28-14-56-28-83.9-42c-3.7-1.9-7.1-1.8-10.8,0.1c-9,4.5-18,9-27,13.5
				c7.7,3.8,15.3,7.6,22.9,11.5c8.2,4.2,15.9,8.3,26.9,6c4.4,0.4,7.8,0.6,11.2,1c11.5,1.5,25.4,10.1,25.4,15.7
				c0,2.8,0.1,5.9-4.9,7.2c-4.8,1.2-7.1-1.8-10.1-3.2c-15.4-7.4-13.4-7.9-27.1,1.5c-3,2.1-2.8,3.9,0.9,5.7c4.4,2.2,8.6,4.4,13,6.6
				c4.1,2.1,3.4,3.9-0.7,5.4c-6.2,2.2-12.8,2.2-19.5,0.2c-14.1-4.1-22.9-10.2-23.3-19.4c-0.2-3.9-2.9-6.9-8.6-9.3
				c-5.8-2.4-11-5.3-16.4-8c-5.2-2.6-10.5-5.2-15.7-7.8c-10.4,5.2-20.9,10.4-31.3,15.7c-1.3,0.6-3.2,0.9-3.3,2.7
				c-0.1,2,2,2.4,3.4,3.1c27.9,14,55.7,27.9,83.6,41.9c1.7,0.9,3.5,1.4,5.5,1.6c1.7-0.3,3.4-0.7,5-1.5
				c28.3-14.2,56.6-28.3,84.9-42.5c1.2-0.6,2.9-1,3-2.5C-1439.7,301.3-1441.7,301-1442.9,300.3z"/>
			<path id="XMLID_97_" class="st4" d="M-1558.5,300.7c5.7,2.4,8.4,5.4,8.6,9.3c0.4,9.3,9.1,15.3,23.3,19.4c6.8,2,13.3,2,19.5-0.2
				c4.1-1.5,4.8-3.3,0.7-5.4c-4.3-2.2-8.6-4.5-13-6.6c-3.8-1.8-4-3.6-0.9-5.7c13.6-9.3,11.6-8.9,27.1-1.5c3,1.4,5.4,4.4,10.1,3.2
				c5-1.3,4.9-4.4,4.9-7.2c-0.1-5.6-14-14.2-25.4-15.7c-3.4-0.4-6.8-0.6-11.2-1c-11,2.3-18.7-1.8-26.9-6
				c-7.6-3.8-15.2-7.7-22.9-11.5c-8.6,4.3-17.3,8.7-25.9,13c5.2,2.6,10.5,5.2,15.7,7.8C-1569.4,295.4-1564.2,298.2-1558.5,300.7z"/>
			<path id="XMLID_95_" d="M-1537.1,359.6c0-2.2-0.4-3.6-2.6-4.7c-27.6-13.7-55.1-27.5-82.6-41.3c-4-2-5.2-1.2-5.2,3.2
				c0,21.4,0,42.9,0,64.3c5-0.7,5.1,1.3,6.2,6.9c0.4,2.3,2.3,2.2,4.1,2.5c1.8,0.3,2.9-0.3,3.9-1.8c4.1-6.4,4.2-6.4,11.2-3
				c1.4,0.7,2.8,1.5,4.2,2.3c5.5,3.3,5.8,4.2,2.4,9.7c-1.1,1.9-1.4,3.1,0.1,5c1.6,2,2.9,2.3,5.3,1.6c6.4-1.8,7-1.3,8.8,4.8
				c0.4,1.5,1,3,1.4,4.5c1.9,6.6,1.4,7.8-5.4,9.7c-2.3,0.6-3.1,1.6-3.3,3.8c-0.2,2.2,0.6,3.4,2.6,4.5c5.9,3.3,5.9,3.8,2.8,9.5
				c-0.7,1.2-1.3,2.5-2.1,3.7c-0.8,1.3-1.4,2.3-1.9,3.1c15.5,7.8,31.1,15.5,46.6,23.3c3.6,1.8,3.7,1.8,3.7-2.2c0-18.2,0-36.5,0-54.7
				S-1537.2,377.9-1537.1,359.6z"/>
			<path id="XMLID_98_" d="M-1599.8,423.2c0.1-9.8-6.1-18.1-16-21.2c-1.8-0.6-3.4-0.7-4.6-0.9c-2.5,0-4.5,0.3-6.5,0.8c0,2,0,4,0,6.1
				c2-0.7,3.5-1,5.6-0.9c9.1,0.4,15.7,7.4,15.7,16.3c0,4.9-2.7,9.4-6.6,12.3c2,1,3.9,2,5.8,2.9
				C-1602.3,434.5-1599.9,429.1-1599.8,423.2z"/>
			<path id="XMLID_21_" d="M-1437.5,317.1c0-5.2-1.1-5.9-5.8-3.5c-27.6,13.8-55.3,27.7-83,41.4c-2.4,1.2-3.2,2.5-3.2,5.2
				c0.1,18.1,0.1,36.2,0.1,54.3c0,18.2,0,36.5,0,54.7c0,4.2,0,4.2,3.6,2.5c27.6-13.8,55.3-27.7,82.9-41.4c3.7-1.8,5.4-4.5,5.4-8.6
				C-1437.5,386.7-1437.4,351.9-1437.5,317.1z M-1442.1,377.8l-33.3,17.2l-0.2,39.8c0,3.2-2.6,5.8-5.9,5.8c-3.2,0-5.8-2.6-5.8-5.9
				l0.2-33.7l-27.9,14.3c-2.9,1.5-6.4,0.4-7.9-2.5c-1.5-2.9-0.4-6.4,2.5-7.9l33.3-17.2l0.2-39.8c0-3.2,2.6-5.8,5.9-5.8
				c3.2,0,5.8,2.6,5.8,5.9l-0.2,33.7l27.9-14.4c2.9-1.5,6.4-0.4,7.9,2.5C-1438.1,372.8-1439.3,376.3-1442.1,377.8z"/>
		</g>
		<path id="XMLID_17_" class="st3" d="M-1345.5,173.6l-7.4-30.1c-0.3-1.1,0.5-2.1,1.6-2.1h9.3l3.8,16.4c1,4,1.8,8.1,2.4,11.2h0.1
			c0.5-3.2,1.5-7.1,2.6-11.3l4.3-16.4h4.4l3.9,16.4c0.9,3.8,1.8,7.7,2.3,11.1h0.1c0.7-3.6,2.9-13.6,2.9-13.6h4.3l-5.2,19.4h-4.4
			l-4.1-17.9c-1-4.1-1.7-7.3-2.1-10.6h-0.1c-0.6,3.2-1.3,6.4-2.5,10.6l-4.6,17.9h-10.1C-1344.7,174.8-1345.3,174.3-1345.5,173.6z"/>
		<path id="XMLID_46_" class="st3" d="M-1392,201.6L-1392,201.6c1-0.5,2-1.6,2-2.9c0-1-0.5-1.8-1.2-2.3c-0.8-0.7-1.9-1-3.6-1
			c-0.7,0-7.8-0.2-7.8-0.2l-4,13h6.5v-2h-3.2l1.2-4h4v6.4c0,0,1.5,0,2.7,0c2.1,0,3.6-0.4,4.5-1.2c0.7-0.6,1.3-1.5,1.3-2.6
			C-1389.5,202.9-1391,201.9-1392,201.6z M-1396,196.9c0-0.1,0.6-0.1,1.4-0.1c1.7,0,2.8,0.2,2.8,1.7c0,1.3-1.1,1.8-2.8,1.8h-1.4
			V196.9z M-1401.6,200.3l1.2-4h2.4v4H-1401.6z M-1394.7,207.4c-0.6,0-1.3,0-1.3-0.1v-5h1.2c1.8,0,3.4,0.8,3.4,2.5
			C-1391.4,206.7-1392.9,207.4-1394.7,207.4z"/>
		<polygon id="XMLID_287_" class="st5" points="-853,163.3 -175.1,-524.9 759.9,-281.9 1017,649.3 339.1,1337.5 -595.9,1094.5 		"/>
		<rect id="XMLID_10_" x="-1281.7" y="221.4" class="st3" width="18" height="2.9"/>
		<rect id="XMLID_26_" x="-1373.4" y="254.4" class="st3" width="1.4" height="33.1"/>
		<g id="XMLID_278_" class="st3">
			<path id="XMLID_100_" class="st6" d="M-449.3,216.9c-22.8-11.5-45.7-22.9-68.5-34.3c-3-1.5-5.8-1.4-8.8,0.1
				c-7.4,3.6-14.8,7.3-22.2,11c6.2,3.1,12.5,6.2,18.7,9.4c6.7,3.4,13,6.8,22,4.9c3.6,0.3,6.4,0.5,9.1,0.8
				c9.4,1.2,20.7,8.2,20.8,12.8c0,2.3,0.1,4.8-4,5.9c-3.9,1-5.8-1.4-8.3-2.6c-12.6-6-11-6.4-22.1,1.2c-2.5,1.7-2.3,3.2,0.8,4.7
				c3.6,1.8,7.1,3.6,10.6,5.4c3.3,1.7,2.8,3.2-0.6,4.4c-5.1,1.8-10.4,1.8-16,0.2c-11.5-3.3-18.7-8.3-19-15.9c-0.1-3.2-2.3-5.6-7-7.6
				c-4.7-2-9-4.3-13.4-6.5c-4.3-2.1-8.6-4.3-12.8-6.4c-8.5,4.3-17,8.5-25.6,12.8c-1.1,0.5-2.6,0.8-2.7,2.2c-0.1,1.6,1.6,1.9,2.8,2.5
				c22.8,11.4,45.5,22.8,68.3,34.2c1.4,0.7,2.8,1.1,4.5,1.3c1.4-0.2,2.7-0.6,4.1-1.2c23.1-11.6,46.3-23.2,69.4-34.7
				c1-0.5,2.4-0.8,2.5-2.1C-446.7,217.7-448.3,217.4-449.3,216.9z"/>
			<path id="XMLID_99_" class="st4" d="M-543.7,217.2c4.7,2,6.9,4.4,7,7.6c0.3,7.6,7.5,12.5,19,15.9c5.5,1.6,10.9,1.6,16-0.2
				c3.3-1.2,3.9-2.7,0.6-4.4c-3.6-1.8-7-3.6-10.6-5.4c-3.1-1.5-3.2-3-0.8-4.7c11.1-7.6,9.5-7.2,22.1-1.2c2.4,1.2,4.4,3.6,8.3,2.6
				c4.1-1,4-3.6,4-5.9c-0.1-4.6-11.4-11.6-20.8-12.8c-2.7-0.4-5.5-0.5-9.1-0.8c-9,1.9-15.3-1.5-22-4.9c-6.2-3.1-12.4-6.3-18.7-9.4
				c-7.1,3.5-14.1,7.1-21.2,10.6c4.3,2.1,8.6,4.3,12.8,6.4C-552.7,212.9-548.4,215.2-543.7,217.2z"/>
			<path id="XMLID_96_" class="st7" d="M-526.3,265.4c0-1.8-0.3-2.9-2.1-3.9c-22.5-11.2-45-22.5-67.5-33.7c-3.3-1.6-4.3-1-4.3,2.6
				c0,17.5,0,35,0,52.5c4.1-0.6,4.2,1.1,5.1,5.6c0.4,1.9,1.9,1.8,3.3,2.1c1.5,0.3,2.4-0.2,3.2-1.5c3.4-5.2,3.4-5.2,9.1-2.4
				c1.2,0.6,2.3,1.2,3.4,1.9c4.5,2.7,4.7,3.4,1.9,7.9c-0.9,1.5-1.1,2.5,0.1,4.1c1.3,1.6,2.4,1.9,4.3,1.3c5.2-1.5,5.8-1.1,7.2,3.9
				c0.4,1.2,0.8,2.5,1.1,3.7c1.6,5.4,1.1,6.4-4.4,8c-1.8,0.5-2.5,1.3-2.7,3.1c-0.2,1.8,0.5,2.7,2.1,3.6c4.8,2.7,4.9,3.1,2.3,7.8
				c-0.6,1-1.1,2.1-1.7,3c-0.6,1-1.1,1.9-1.6,2.5c12.7,6.3,25.4,12.7,38.1,19c3,1.5,3,1.5,3-1.8c0-14.9,0-29.8,0-44.7
				S-526.3,280.2-526.3,265.4z"/>
			<path id="XMLID_94_" class="st7" d="M-577.5,317.3c0.1-8-5-14.8-13.1-17.3c-1.5-0.5-3-0.6-3.9-0.8c-2,0-3.5,0.2-5.5,0.6
				c0,1.6,0,3.3,0,4.9c2-0.5,3-0.8,4.7-0.8c7.4,0.3,12.9,6,12.9,13.3c0,4-2.2,7.7-5.4,10c1.6,0.8,3.2,1.6,4.8,2.4
				C-579.5,326.5-577.5,322.1-577.5,317.3z"/>
			<path id="XMLID_91_" class="st7" d="M-444.9,230.6c0-4.3-0.9-4.8-4.7-2.9c-22.6,11.3-45.1,22.6-67.8,33.8c-1.9,1-2.6,2.1-2.6,4.2
				c0.1,14.8,0,29.6,0,44.4c0,14.9,0,29.8,0,44.7c0,3.4,0,3.5,2.9,2c22.6-11.3,45.1-22.6,67.7-33.8c3-1.5,4.4-3.6,4.4-7
				C-444.9,287.5-444.9,259.1-444.9,230.6z M-448.7,280.2l-27.2,14l-0.1,32.5c0,2.6-2.2,4.8-4.8,4.7c-2.6,0-4.8-2.2-4.7-4.8
				l0.1-27.6l-22.8,11.7c-2.3,1.2-5.2,0.3-6.4-2.1c-1.2-2.3-0.3-5.2,2.1-6.4l27.2-14l0.1-32.5c0-2.6,2.2-4.8,4.8-4.7
				c2.6,0,4.8,2.2,4.7,4.8l-0.1,27.6l22.8-11.7c2.3-1.2,5.2-0.3,6.4,2.1C-445.4,276.1-446.3,279-448.7,280.2z"/>
			<g id="XMLID_244_">
				<path id="XMLID_497_" class="st8" d="M-608.2,218.9l21.2-11.3l21.3-11.3l21.3-11.2l21.3-11.2c0.4-0.2,0.9-0.2,1.3,0l0,0
					l21.5,10.7l21.5,10.8l21.5,10.8L-436,217c0.7,0.4,1,1.1,1,1.9l0,0c0,17.3,0.4,34.6,0.4,51.8l0.2,51.8c0,1-0.5,1.8-1.3,2.2
					l-43.3,21.4l-21.6,10.7l-21.7,10.6l0,0c-0.6,0.3-1.4,0.3-2,0l-42.3-21.7l-42.3-21.8l0,0c-0.5-0.3-0.8-0.8-0.8-1.4l0.3-25.9
					l0.4-25.9l0.4-25.9C-608.6,236.2-608.4,227.5-608.2,218.9z M-608.2,218.9c0.2,8.6,0.4,17.3,0.5,25.9l0.4,25.9l0.4,25.9l0.3,25.9
					l-0.8-1.4l42.6,21.1l42.6,21.2h-2l21.6-10.8l21.6-10.8l43.2-21.5l-1.4,2.2l0.1-51.8c0-17.3,0.1-34.6,0.2-51.8l1.2,1.9l-21.4-11
					l-21.3-11.1l-21.3-11.2l-21.5-11.2h1.3l-21.5,10.8l-21.6,10.6l-21.6,10.6L-608.2,218.9z"/>
			</g>
		</g>
	</g>
	<path id="XMLID_188_" class="st9" d="M-123.6,281.3H-146v29h22.4c9.1,0,14.4-3.8,14.4-13.1C-109.2,286.9-112.1,281.3-123.6,281.3z"
		/>
	<path id="XMLID_189_" class="st9" d="M-123.6,323.3H-146v29h22.4c9.1,0,14.4-3.8,14.4-13.1C-109.2,328.9-112.1,323.3-123.6,323.3z"
		/>
	<path id="XMLID_190_" class="st9" d="M-196,310.3h18.7c3.3,0,6.3,2.1,6.3,6.5c0,4.4-3,6.5-6.3,6.5H-196v29h37v-71h-37V310.3z"/>
	<polygon id="XMLID_192_" class="st8" points="-244,352.1 -244.5,351.2 -245.6,352.1 	"/>
	<polygon id="XMLID_249_" class="st9" points="-248,352.3 -248.4,351.4 -249.6,352.3 	"/>
	<polygon id="XMLID_257_" class="st8" points="-248.4,351.4 -248.3,351.3 -248.4,351.3 -248.4,351.3 	"/>
	<path id="XMLID_365_" class="st9" d="M-133.6,281.3H-156v29h22.4c9.1,0,14.4-3.8,14.4-13.1C-119.2,286.9-122.1,281.3-133.6,281.3z"
		/>
	<path id="XMLID_366_" class="st9" d="M-208,281.3v29h18.7c3.3,0,6.3,2.1,6.3,6.5c0,4.4-3,6.5-6.3,6.5H-208v29h37h2v-71h-2H-208z"/>
	<path id="XMLID_367_" class="st9" d="M-133.6,323.3H-156v29h22.4c9.1,0,14.4-3.8,14.4-13.1C-119.2,328.9-122.1,323.3-133.6,323.3z"
		/>
	<polygon id="XMLID_368_" class="st9" points="-258,352.3 -258.4,351.4 -259.6,352.3 	"/>
	<polygon id="XMLID_369_" class="st9" points="-258.4,351.4 -258.3,351.3 -258.4,351.3 -258.4,351.3 	"/>
	<rect id="XMLID_370_" x="-99" y="289.3" class="st9" width="44" height="19"/>
	<rect id="XMLID_371_" x="-35" y="289.3" class="st9" width="43" height="19"/>
	<path id="XMLID_372_" class="st8" d="M-229,346.2v-70.9c0-3-1-5-3-5.8c-1-0.2-1.7-0.3-2.7-0.3c-4.5-0.1-6.3,2.1-6.3,6.1v70.9
		l-3.8,6.1h-1.4l-3.8-6.1v-38.5c0-3.8-1.5-7.2-6-7.2s-6,3.4-6,7.2v38.5l-6.4,5.1v0.1l-0.1,0.1l0.5,0.8h-1.6l1.2-0.9v-0.1l0.1-0.1
		l-2.6-5.1v-70.8c0-3.9-5-6.1-9.5-6.1c-4.6-0.1-10.6,2.1-10.6,6.1v70.9c0,3.3,0.1,3.5,1.7,6.2l4.4,7.5c2.1,3.7,3.3,4.4,7.7,4.4h10.9
		l9.2-9.2l9.2,9.2h5.2c4.4,0,5.8-0.7,7.9-4.4l2.8-4.3l1.6-3.2C-228.8,349.7-229,349.5-229,346.2z"/>
	<path id="XMLID_375_" class="st8" d="M-128,279.7c0-0.3-0.1-0.7-0.1-1c0.1-2.1,0.5-3.7,1.2-5c-4.2-2.8-9.7-4.4-16.7-4.4h-28.9
		c3.3,0,6.3,1.6,6.3,6c0,4.4-3,6-6.3,6h-2c3.3,0,6.3-1.6,6.3-6c0-4.4-3-6-6.3-6h-6.5h-49v0.2c2,0.8,3,2.8,3,5.8v70.9
		c0,3.3,0.2,3.5-1.4,6.2l-1.6,3.2v8.7h49h6.5c3.3,0,6.3-1.6,6.3-6s-3-6-6.3-6h2c3.3,0,6.3,1.6,6.3,6s-3,6-6.3,6h28.9
		c6.4,0,12.1-1.5,16.5-4.4c-0.6-1.4-0.9-3-0.9-4.6V279.7z M-179,352.3h-2h-37v-29h18.7c3.3,0,6.3-2.1,6.3-6.5c0-4.4-3-6.5-6.3-6.5
		H-218v-29h37h2V352.3z M-143.6,352.3H-166v-29h22.4c11.5,0,14.4,5.6,14.4,15.9C-129.2,348.5-134.5,352.3-143.6,352.3z
		 M-143.6,310.3H-166v-29h22.4c11.5,0,14.4,5.6,14.4,15.9C-129.2,306.5-134.5,310.3-143.6,310.3z"/>
	<rect id="XMLID_386_" x="-35" y="289.3" class="st9" width="43" height="19"/>
	<rect id="XMLID_387_" x="-99" y="289.3" class="st9" width="44" height="19"/>
	<path id="XMLID_391_" class="st8" d="M26.8,278.8c-0.2-5.3-2.8-7.8-6.9-8.5c-0.8-0.2-1.6-0.6-2.5-0.6c-0.4,0-0.8-0.4-1.2-0.4h-41.9
		l46.8-55.6c2.2-3.1,5.6-6.1,5.6-10.2c0-5.6-4.5-9.1-9.7-9.1c-3.4,0-5.4,2.4-7.4,4.8l-54.5,66.2l-35.5-46.6c-2-2.3-4.7-4.4-7.9-4.4
		c-5.2,0-9.7,3.6-9.7,9.2c0,3.1,1.8,5.2,3.7,7.5l28.3,38.2h-41.7c-0.4,0-0.8,0.4-1.2,0.4c-0.9,0-1.7,0.3-2.5,0.4
		c-2.5,0.4-4.4,1.6-5.5,3.6c7,4.7,10.3,13,10.3,23.8c0,7.1-1.6,13.5-8.3,19.2c7.2,6.6,8.3,13.1,8.3,22.1c0,9.6-3.9,16.8-10.5,21
		c1.3,2.9,4,5,8.6,5c6.7,0,9.5-4.6,9.5-9.6v-27h44v17h-19v-6.3c0-6-2.1-9.3-9-9.3s-9,3.4-9,9.3v25.4H1V339c0-6-2.1-9.3-9-9.3
		s-9,3.4-9,9.3v6.3h-18v-17H8v27c0,5,2.8,9.6,9.5,9.6s9.5-4.6,9.5-9.6v-75.6C27,279.4,26.9,279.1,26.8,278.8z M-55,308.3h-44v-19h44
		V308.3z M8,308.3h-43v-19H8V308.3z"/>
	<path id="XMLID_393_" class="st10" d="M-35,251.4v-17.7c0-6-3.1-9.3-10-9.3s-10,3.4-10,9.3v17.5l10.2,12.2L-35,251.4z"/>
	<path id="XMLID_382_" class="st8" d="M-116.6,338.9c0-9.1-1.1-15.5-8.3-22.1c6.7-5.7,8.3-12.2,8.3-19.2c0-10.8-3.3-19.1-10.3-23.8
		c-0.7,1.3-1.1,3-1.2,5c0,0.3,0.1,0.7,0.1,1v75.5c0,1.6,0.3,3.2,0.9,4.6C-120.5,355.6-116.6,348.4-116.6,338.9z"/>
</g>
<g id="Layer_2_1_">
	<g>
		<path id="XMLID_144_" d="M494.6,282.1c-4.4,0-6.8-2.1-6.8-7.1c0-5,2.4-7.1,6.8-7.1h32l-35.9-43.6c-1.5-1.8-2.7-3.6-2.7-5.9
			c0-4.1,3.3-6.8,7.1-6.8c2.4,0,4.4,1.5,5.9,3.3L542,264l40.9-48.9c1.5-1.8,3.6-3.6,5.9-3.6c3.9,0,7.1,2.7,7.1,6.8
			c0,3-2.4,5.3-4.1,7.7l-34.7,41.8h32c4.4,0,6.8,2.1,6.8,7.1c0,5-2.4,7.1-6.8,7.1H494.6z"/>
		<path id="XMLID_146_" d="M501.8,312.7v21.2c0,3.9-2.1,7.2-6.9,7.2s-6.9-3.6-6.9-7.2v-56.6c0-3.9,2.1-7.2,6.9-7.2s6.9,3.6,6.9,7.2
			v21.2h80.5v-21.2c0-3.9,2.1-7.2,6.9-7.2s6.9,3.6,6.9,7.2v56.6c0,3.9-2.1,7.2-6.9,7.2s-6.9-3.6-6.9-7.2v-21.2H501.8z"/>
		<path id="XMLID_148_" d="M562.8,326.9v-5c0-4.4,2.1-6.8,7.1-6.8s7.1,2.4,7.1,6.8v19h-70.5v-19c0-4.4,2.1-6.8,7.1-6.8
			c5,0,7.1,2.4,7.1,6.8v5h13.9v-87.1c0-4.4,2.1-6.8,7.1-6.8c5,0,7.1,2.4,7.1,6.8v87.1H562.8z"/>
	</g>
</g>
<g id="Layer_3">
	<g>
		<path id="XMLID_12_" d="M139.4,310.5c-2.4,0-3.7-1.1-3.7-3.9c0-2.7,1.3-3.9,3.7-3.9h17.4l-19.5-23.7c-0.8-1-1.5-1.9-1.5-3.2
			c0-2.3,1.8-3.7,3.9-3.7c1.3,0,2.4,0.8,3.2,1.8l22.2,26.8l22.2-26.6c0.8-1,1.9-1.9,3.2-1.9c2.1,0,3.9,1.5,3.9,3.7
			c0,1.6-1.3,2.9-2.3,4.2l-18.9,22.7h17.4c2.4,0,3.7,1.1,3.7,3.9c0,2.7-1.3,3.9-3.7,3.9H139.4z"/>
		<path id="XMLID_11_" d="M213.4,295.1v11.5c0,2.1-1.1,3.9-3.7,3.9s-3.7-1.9-3.7-3.9v-30.8c0-2.1,1.1-3.9,3.7-3.9s3.7,1.9,3.7,3.9
			v11.5h43.8v-11.5c0-2.1,1.1-3.9,3.7-3.9c2.6,0,3.7,1.9,3.7,3.9v30.8c0,2.1-1.1,3.9-3.7,3.9c-2.6,0-3.7-1.9-3.7-3.9v-11.5H213.4z"
			/>
		<path id="XMLID_1_" d="M306.5,302.9v-2.7c0-2.4,1.1-3.7,3.9-3.7c2.7,0,3.9,1.3,3.9,3.7v10.3h-38.4v-10.3c0-2.4,1.1-3.7,3.9-3.7
			s3.9,1.3,3.9,3.7v2.7h7.6v-47.4c0-2.4,1.1-3.7,3.9-3.7s3.9,1.3,3.9,3.7v47.4H306.5z"/>
	</g>
</g>
</svg>
